# xmcd
#
# Track frame offsets:
#   150
#   19771
#   37056
#   55396
#   70424
#   83999
#   103036
#   123525
#   142236
#   157077
#   173195
#   193049
#   209917
#   227934
#   244135
#   259433
#   274779
#
# Disc length: 3944 seconds
#
# Revision: 0
# Processed by: cddbd v1.4PL0 Copyright (c) Steve Scherf et al.
# Submitted via: uFREEDB 1.6.0
#
DISCID=160f6611
DTITLE=Nana Muskoiri - Casi Iguakito a la serie 32. Vol 2
DYEAR=2000
DGENRE=Blues
TTITLE0=1
TTITLE1=2
TTITLE2=3
TTITLE3=4
TTITLE4=5
TTITLE5=6
TTITLE6=7
TTITLE7=8
TTITLE8=9
TTITLE9=10
TTITLE10=11
TTITLE11=12
TTITLE12=13
TTITLE13=14
TTITLE14=15
TTITLE15=16
TTITLE16=17
EXTD=
EXTT0=
EXTT1=
EXTT2=
EXTT3=
EXTT4=
EXTT5=
EXTT6=
EXTT7=
EXTT8=
EXTT9=
EXTT10=
EXTT11=
EXTT12=
EXTT13=
EXTT14=
EXTT15=
EXTT16=
PLAYORDER=
